<?xml version="1.0" encoding="utf-8"?>
<!-- Generator: Adobe Illustrator 21.1.0, SVG Export Plug-In . SVG Version: 6.00 Build 0)  -->
<svg version="1.1" id="Слой_1" xmlns="http://www.w3.org/2000/svg" xmlns:xlink="http://www.w3.org/1999/xlink" x="0px" y="0px"
	 viewBox="0 0 409.1 120" style="enable-background:new 0 0 409.1 120;" xml:space="preserve">
<style type="text/css">
	.st0{fill:#FFFFFF;}
	.st1{fill:url(#SVGID_1_);}
	.st2{fill:url(#SVGID_2_);}
</style>
<g>
	<g>
		<path class="st0" d="M143.2,56.9c0-1.4-0.2-2.8-0.6-4.1c-0.4-1.3-0.9-2.5-1.6-3.7c-0.7-1.1-1.5-2.2-2.4-3.1
			c-0.9-0.9-2-1.7-3.1-2.4s-2.4-1.2-3.7-1.6c-1.3-0.4-2.7-0.6-4.1-0.6h-7.4c-0.7,0-1.3,0.2-1.8,0.6c-0.5,0.4-0.8,1-0.9,1.6
			c0,0.1,0,0.2,0,0.3s0,0.2,0,0.3v12.5l0,0v12.5c0,0.1,0,0.2,0,0.3c0,0.1,0,0.2,0,0.3c0.1,0.6,0.4,1.2,0.9,1.6s1.1,0.6,1.8,0.6h7.4
			c1.4,0,2.8-0.2,4.1-0.6s2.5-0.9,3.7-1.6c1.1-0.7,2.2-1.5,3.1-2.4c0.9-0.9,1.8-2,2.4-3.1c0.7-1.1,1.2-2.4,1.6-3.7
			C143,59.7,143.2,58.3,143.2,56.9L143.2,56.9L143.2,56.9L143.2,56.9L143.2,56.9z M136.7,60.7c-0.5,1.2-1.2,2.2-2.1,3.1
			c-0.9,0.9-1.9,1.6-3.1,2.1c-1.2,0.5-2.4,0.8-3.8,0.8h-4.6v-9.8l0,0v-9.8h4.6c1.3,0,2.6,0.3,3.8,0.8s2.2,1.2,3.1,2.1
			c0.9,0.9,1.6,1.9,2.1,3.1c0.5,1.2,0.8,2.5,0.8,3.8C137.5,58.3,137.3,59.5,136.7,60.7z"/>
		<path class="st0" d="M166.4,52c-1.1-1-2.3-1.8-3.7-2.4c-1.4-0.6-2.9-0.9-4.5-0.9s-3.2,0.3-4.6,0.9c-1.4,0.6-2.7,1.4-3.8,2.4
			s-2,2.3-2.6,3.7s-1,3-1,4.7c0,1.6,0.3,3.2,0.9,4.6c0.6,1.4,1.5,2.7,2.5,3.7c1.1,1.1,2.3,1.9,3.7,2.5s2.9,0.9,4.6,0.9
			c0.9,0,1.9-0.1,2.9-0.3c1-0.2,1.9-0.5,2.7-0.8c0.8-0.4,1.4-0.8,2-1.3c0.5-0.5,0.8-1.1,0.8-1.7c0-0.5-0.2-1-0.5-1.3
			c-0.3-0.4-0.7-0.6-1.1-0.8c-0.4-0.2-0.9-0.2-1.3-0.2c-0.5,0-0.9,0.1-1.2,0.3c-0.6,0.5-1.2,0.9-1.9,1.1c-0.7,0.3-1.5,0.4-2.2,0.4
			c-0.8,0-1.5-0.2-2.2-0.5s-1.3-0.7-1.9-1.2c-0.5-0.5-1-1.1-1.3-1.7c-0.3-0.7-0.5-1.4-0.6-2.1h15.1c1,0,1.7-0.1,2.1-0.4
			c0.4-0.3,0.6-0.8,0.6-1.6c0-1.6-0.3-3.2-0.9-4.6C168.3,54.3,167.5,53.1,166.4,52z M151.9,58.7c0.1-0.8,0.3-1.5,0.7-2.1
			s0.8-1.2,1.4-1.7c0.6-0.5,1.2-0.9,1.9-1.1c0.7-0.3,1.5-0.4,2.2-0.4c0.8,0,1.5,0.1,2.2,0.4c0.7,0.3,1.3,0.6,1.8,1.1s1,1,1.3,1.7
			c0.3,0.6,0.5,1.3,0.6,2.1H151.9z"/>
		<path class="st0" d="M199.1,63.1c-0.2-0.2-0.5-0.3-0.8-0.4c-0.3-0.1-0.5-0.1-0.8-0.1s-0.6,0-0.8,0.1c-0.3,0.1-0.5,0.2-0.8,0.3
			c-0.6,0.5-1.1,1-1.7,1.4c-0.6,0.5-1.1,0.9-1.8,1.2c-0.6,0.4-1.3,0.6-2,0.8c-0.7,0.2-1.5,0.3-2.4,0.3c-1.3,0-2.6-0.3-3.8-0.8
			s-2.2-1.2-3.1-2.1c-0.9-0.9-1.6-1.9-2.1-3.1c-0.5-1.2-0.8-2.4-0.8-3.8s0.3-2.6,0.8-3.8s1.2-2.2,2.1-3.1c0.9-0.9,1.9-1.6,3.1-2.1
			c1.2-0.5,2.4-0.8,3.8-0.8c1.4,0,2.7,0.3,3.9,0.9c1.1,0.6,2.2,1.3,3.2,2.3c0.3,0.3,0.7,0.5,1.1,0.6c0.4,0.1,0.7,0.2,1,0.2
			s0.6-0.1,0.9-0.2c0.3-0.1,0.5-0.3,0.8-0.5c0.3-0.3,0.6-0.6,0.7-1c0.2-0.4,0.2-0.7,0.2-1.1c0-0.8-0.3-1.5-0.8-2
			c-0.8-0.9-1.6-1.6-2.4-2.2c-0.8-0.6-1.7-1.1-2.6-1.5c-0.9-0.4-1.8-0.6-2.8-0.8s-2-0.3-3.1-0.3c-1.4,0-2.8,0.2-4.1,0.5
			c-1.3,0.4-2.5,0.9-3.7,1.6c-1.1,0.7-2.2,1.5-3.1,2.4c-0.9,0.9-1.7,2-2.4,3.1s-1.2,2.4-1.6,3.7c-0.4,1.3-0.5,2.7-0.5,4.1
			c0,2.1,0.4,4.1,1.2,6s1.9,3.5,3.3,4.9c1.4,1.4,3,2.5,4.9,3.3s3.9,1.2,6,1.2c1.3,0,2.4-0.1,3.4-0.3c1-0.2,2-0.5,2.9-0.9
			s1.8-0.9,2.6-1.6c0.8-0.6,1.6-1.4,2.4-2.3c0.3-0.3,0.5-0.6,0.7-1c0.1-0.3,0.2-0.7,0.2-1.1s-0.1-0.8-0.3-1.2
			C199.7,63.7,199.4,63.4,199.1,63.1z"/>
		<path class="st0" d="M218.8,49.4c-0.6-0.2-1.3-0.4-2-0.4c-0.7-0.1-1.3-0.1-1.9,0c-0.8,0.1-1.5,0.3-2.2,0.6s-1.3,0.6-1.9,1
			c-0.6,0.4-1.1,0.8-1.5,1.2c-0.2,0.2-0.5,0.5-0.6,0.7l-0.2-0.9c-0.2-1-0.5-1.8-1-2.2c-0.4-0.4-0.9-0.6-1.5-0.6
			c-1,0-1.5,0.5-1.5,1.5v19.2c0,0.4,0.1,0.8,0.2,1.1c0.1,0.3,0.3,0.6,0.6,0.9s0.6,0.5,0.9,0.6c0.3,0.1,0.7,0.2,1.1,0.2
			c0.4,0,0.7-0.1,1.1-0.2c0.3-0.1,0.6-0.3,0.9-0.6c0.3-0.3,0.5-0.6,0.6-0.9c0.2-0.3,0.2-0.7,0.2-1.1V60c0.1-0.7,0.2-1.3,0.4-1.9
			c0.2-0.6,0.5-1.1,0.8-1.6s0.7-0.9,1.2-1.2s0.9-0.6,1.5-0.8c0.5-0.2,1.1-0.2,1.6-0.2s1.1,0.1,1.6,0.1c0.7,0,1.2,0,1.5,0
			c0.4,0,0.7-0.2,1.1-0.4c0.3-0.2,0.6-0.5,0.8-0.8c0.2-0.4,0.3-0.8,0.3-1.2c0-0.7-0.2-1.2-0.6-1.6C219.9,49.9,219.4,49.6,218.8,49.4
			z"/>
		<path class="st0" d="M244.3,49.4c-0.3-0.2-0.5-0.4-0.7-0.5c-0.4-0.2-0.8-0.3-1.2-0.3s-0.8,0.1-1.1,0.2c-0.3,0.1-0.6,0.3-0.9,0.6
			c-0.3,0.3-0.5,0.6-0.6,0.9c-0.1,0.1-0.2,0.6-0.5,1.3s-0.6,1.7-1.1,2.9s-1.1,2.7-1.7,4.5c-0.7,1.7-1.4,3.7-2.3,5.9l-5.6-14.4
			c-0.2-0.4-0.4-0.8-0.7-1.1s-0.6-0.5-1-0.6s-0.7-0.2-1.1-0.2c-0.4,0-0.8,0.1-1.1,0.3c-0.8,0.4-1.2,0.9-1.4,1.7
			c-0.2,0.7-0.1,1.5,0.2,2.3l3.9,8.6c0.5,1.1,1,2.1,1.4,3.2c0.5,1,0.9,1.9,1.3,2.8c0.4,0.8,0.7,1.5,0.9,2s0.3,0.7,0.3,0.8l-1.2,2.7
			c-0.3,0.3-0.6,0.6-1,0.8c-0.4,0.2-0.8,0.3-1.1,0.5c-0.4,0.1-0.8,0.2-1.2,0.4c-0.4,0.1-0.7,0.3-1,0.4c-0.3,0.2-0.5,0.4-0.7,0.6
			c-0.2,0.3-0.3,0.6-0.3,1.1c0,0.9,0.3,1.6,0.9,2.1c0.6,0.5,1.4,0.7,2.3,0.7c1,0,1.9-0.2,2.7-0.4c0.8-0.3,1.5-0.6,2.1-1.1
			c0.6-0.4,1.1-1,1.6-1.6s0.9-1.3,1.2-2.1l9.5-21.3c0.2-0.5,0.3-1,0.3-1.4s-0.1-0.8-0.3-1.1C244.8,49.9,244.6,49.6,244.3,49.4z"/>
		<path class="st0" d="M269.2,52.2c-1-1.1-2.2-1.9-3.6-2.5s-2.9-0.9-4.5-0.9s-3.1,0.3-4.4,0.9c-1.3,0.6-2.5,1.5-3.4,2.5
			c-0.1,0.1-0.1,0.2-0.2,0.2l-0.3-0.9c-0.2-1-0.5-1.7-0.9-2.1c-0.4-0.4-1-0.6-1.5-0.6c-1,0-1.5,0.5-1.5,1.5V77c0,0.8,0.3,1.5,0.8,2
			s1.2,0.8,2,0.8c0.4,0,0.7-0.1,1.1-0.2c0.3-0.1,0.6-0.3,0.9-0.6c0.3-0.3,0.5-0.6,0.6-0.9c0.2-0.3,0.2-0.7,0.2-1.1v-7.3
			c0.8,0.7,1.6,1.3,2.6,1.7c1.3,0.6,2.7,0.9,4.1,0.9c1.6,0,3.1-0.3,4.5-0.9s2.6-1.5,3.6-2.5c1-1.1,1.8-2.3,2.4-3.7
			c0.6-1.4,0.9-3,0.9-4.6s-0.3-3.1-0.9-4.6C271,54.6,270.2,53.3,269.2,52.2z M266.2,63c-0.3,0.8-0.8,1.4-1.3,2s-1.2,1-1.9,1.4
			c-0.7,0.3-1.5,0.5-2.4,0.5s-1.7-0.2-2.4-0.5c-0.7-0.3-1.4-0.8-1.9-1.4s-1-1.2-1.3-2s-0.5-1.6-0.5-2.5s0.2-1.7,0.5-2.4
			c0.3-0.8,0.7-1.4,1.3-2c0.5-0.6,1.2-1,1.9-1.4c0.7-0.3,1.6-0.5,2.4-0.5s1.7,0.2,2.4,0.5c0.7,0.3,1.4,0.8,1.9,1.4
			c0.5,0.6,1,1.2,1.3,2s0.5,1.6,0.5,2.4C266.7,61.4,266.6,62.3,266.2,63z"/>
		<path class="st0" d="M287.6,50c-0.2-0.2-0.5-0.4-0.9-0.6c-0.3-0.1-0.7-0.2-1.1-0.2h-2.4v-4.9c0-0.4-0.1-0.7-0.2-1.1
			c-0.2-0.3-0.4-0.6-0.6-0.9c-0.3-0.3-0.6-0.5-0.9-0.6s-0.7-0.2-1.1-0.2s-0.8,0.1-1.1,0.2c-0.3,0.1-0.6,0.3-0.9,0.6
			c-0.2,0.3-0.4,0.6-0.6,0.9c-0.1,0.3-0.2,0.7-0.2,1.1v25.2c0,0.4,0.1,0.8,0.2,1.1c0.1,0.3,0.3,0.6,0.6,0.9c0.2,0.3,0.5,0.5,0.9,0.6
			c0.3,0.1,0.7,0.2,1.1,0.2s0.7-0.1,1.1-0.2c0.3-0.1,0.6-0.3,0.9-0.6c0.3-0.3,0.5-0.6,0.6-0.9c0.2-0.3,0.2-0.7,0.2-1.1V54.7h2.4
			c0.4,0,0.7-0.1,1.1-0.2c0.3-0.1,0.6-0.3,0.9-0.6c0.2-0.3,0.4-0.5,0.6-0.9c0.1-0.3,0.2-0.7,0.2-1.1c0-0.4-0.1-0.8-0.2-1.1
			C288.1,50.6,287.9,50.3,287.6,50z"/>
		<path class="st0" d="M309.6,52.2c-1.1-1.1-2.3-1.9-3.7-2.5c-1.4-0.6-2.9-0.9-4.6-0.9c-1.6,0-3.1,0.3-4.6,0.9
			c-1.4,0.6-2.7,1.5-3.7,2.5c-1.1,1.1-1.9,2.3-2.5,3.7s-0.9,2.9-0.9,4.6c0,1.6,0.3,3.2,0.9,4.6c0.6,1.4,1.5,2.7,2.5,3.7
			c1.1,1.1,2.3,1.9,3.7,2.5c1.4,0.6,2.9,0.9,4.6,0.9c1.6,0,3.1-0.3,4.6-0.9c1.4-0.6,2.7-1.5,3.7-2.5c1.1-1.1,1.9-2.3,2.5-3.7
			c0.6-1.4,0.9-3,0.9-4.6s-0.3-3.1-0.9-4.6C311.5,54.6,310.7,53.3,309.6,52.2z M306.9,63c-0.3,0.8-0.8,1.4-1.3,2s-1.2,1-1.9,1.4
			c-0.7,0.3-1.5,0.5-2.4,0.5s-1.7-0.2-2.4-0.5c-0.7-0.3-1.4-0.8-1.9-1.4s-1-1.2-1.3-2s-0.5-1.6-0.5-2.5s0.2-1.7,0.5-2.4
			c0.3-0.8,0.7-1.4,1.3-2c0.5-0.6,1.2-1,1.9-1.4c0.7-0.3,1.6-0.5,2.4-0.5s1.7,0.2,2.4,0.5c0.7,0.3,1.4,0.8,1.9,1.4
			c0.5,0.6,1,1.2,1.3,2s0.5,1.6,0.5,2.4C307.4,61.4,307.2,62.3,306.9,63z"/>
		<path class="st0" d="M347.7,44.8c-1.1-1-2.4-1.9-3.9-2.4c-1.5-0.6-3-0.9-4.7-0.9h-7.6l0,0c-0.4,0-0.8,0.1-1.1,0.2
			c-0.3,0.1-0.6,0.3-0.9,0.6s-0.5,0.6-0.6,0.9c-0.1,0.3-0.2,0.7-0.2,1.1v0.2v5.1v20c0,0.4,0.1,0.8,0.2,1.1c0.1,0.3,0.3,0.6,0.6,0.9
			c0.2,0.3,0.5,0.5,0.9,0.6c0.3,0.1,0.7,0.2,1.1,0.2s0.8-0.1,1.1-0.2c0.3-0.1,0.6-0.3,0.9-0.6c0.3-0.3,0.5-0.6,0.6-0.9
			s0.2-0.7,0.2-1.1v-0.2v-5.1h4.8c1.6,0,3.2-0.3,4.7-0.8c1.5-0.6,2.8-1.3,3.9-2.3s2-2.2,2.7-3.5c0.7-1.4,1-2.9,1-4.5s-0.3-3.2-1-4.6
			C349.7,47.1,348.8,45.9,347.7,44.8z M345.3,55.8c-0.4,0.8-0.8,1.4-1.4,1.9s-1.3,1-2.1,1.3c-0.8,0.3-1.7,0.4-2.6,0.4h-4.8V46.6h4.8
			c0.9,0,1.8,0.2,2.6,0.5c0.8,0.4,1.5,0.8,2.1,1.4c0.6,0.6,1.1,1.3,1.4,2.1s0.5,1.7,0.5,2.6C345.8,54.2,345.6,55,345.3,55.8z"/>
		<path class="st0" d="M378,68.9c-0.1-0.3-0.3-0.7-0.5-1l-4.2-5.9c0.4-0.3,0.8-0.6,1.1-0.9c1.1-1,2-2.2,2.7-3.5c0.7-1.4,1-2.9,1-4.5
			s-0.3-3.2-1-4.6c-0.7-1.4-1.5-2.6-2.7-3.7c-1.1-1-2.4-1.9-3.9-2.4c-1.5-0.6-3-0.9-4.7-0.9h-7.6l0,0c-0.4,0-0.8,0.1-1.1,0.2
			c-0.3,0.1-0.6,0.3-0.9,0.6s-0.5,0.6-0.6,0.9c-0.1,0.3-0.2,0.7-0.2,1.1v0.2l0,0v25.1c0,0.4,0.1,0.8,0.2,1.1
			c0.1,0.3,0.3,0.6,0.6,0.9c0.2,0.3,0.5,0.5,0.9,0.6c0.3,0.1,0.7,0.2,1.1,0.2s0.8-0.1,1.1-0.2c0.3-0.1,0.6-0.3,0.9-0.6
			c0.3-0.3,0.5-0.6,0.6-0.9s0.2-0.7,0.2-1.1v-0.2l0,0v-5.1h4.8c0.9,0,1.8-0.1,2.6-0.3l4.7,7.2c0.2,0.3,0.5,0.5,0.8,0.7
			s0.6,0.3,1,0.3c0.3,0,0.7,0,1-0.1s0.7-0.3,1-0.5s0.6-0.5,0.8-0.8c0.2-0.3,0.3-0.7,0.3-1C378.1,69.6,378.1,69.2,378,68.9z
			 M372,55.8c-0.4,0.8-0.8,1.4-1.4,1.9s-1.3,1-2.1,1.3c-0.8,0.3-1.7,0.4-2.6,0.4H361V46.6h4.8c0.9,0,1.8,0.2,2.6,0.5
			c0.8,0.4,1.5,0.8,2.1,1.4c0.6,0.6,1.1,1.3,1.4,2.1s0.5,1.7,0.5,2.6C372.5,54.2,372.3,55,372,55.8z"/>
	</g>
	<g>
		<g>
			<path class="st0" d="M68.5,57.3c-1.3,0-2.6,0.2-3.8,0.5C63.9,59,63,60.1,62,61.1c-1.6,1.6-3.5,2.9-5.7,3.8s-4.5,1.4-7,1.5h-8.5
				v-18l0,0v-18h8.5c2.5,0.1,4.8,0.6,7,1.5s4.1,2.2,5.7,3.8c1.6,1.6,2.9,3.5,3.9,5.7c0.1,0.3,0.3,0.7,0.4,1c0.7-0.1,1.5-0.1,2.2-0.1
				c2.1,0,4.2,0.2,6.1,0.5c0.9,0.2,1.8,0.4,2.6,0.6c-0.1-0.8-0.3-1.6-0.6-2.4c-0.7-2.4-1.6-4.7-2.9-6.8c-1.2-2.1-2.7-4-4.5-5.7
				c-1.7-1.7-3.6-3.2-5.7-4.4c-2.1-1.2-4.4-2.2-6.8-2.9c-2.4-0.7-4.9-1-7.5-1H35.7c-1.3,0-2.4,0.4-3.3,1.2c-0.9,0.8-1.5,1.8-1.7,2.9
				c-0.1,0.2-0.1,0.4-0.1,0.5c0,0.2,0,0.4,0,0.6v23l0,0v23c0,0.2,0,0.4,0,0.6s0,0.4,0.1,0.5c0.2,1.2,0.8,2.2,1.7,2.9
				c0.9,0.8,2,1.2,3.3,1.2h13.7c2.6,0,5.1-0.3,7.5-1s4.7-1.6,6.8-2.9c2.1-1.2,4-2.7,5.7-4.4c1.7-1.7,3.2-3.6,4.5-5.7
				c0.7-1.1,1.2-2.3,1.7-3.5c-0.3-0.2-0.6-0.4-0.9-0.5C72.8,57.7,70.8,57.3,68.5,57.3z"/>
			<path class="st0" d="M62.1,56.1l-0.1-1l-0.5,1.2C61.7,56.2,61.9,56.1,62.1,56.1z"/>
		</g>
		<g>
			
				<linearGradient id="SVGID_1_" gradientUnits="userSpaceOnUse" x1="71.9799" y1="50.8071" x2="58.0172" y2="74.9912" gradientTransform="matrix(1 0 0 -1 0 121.28)">
				<stop  offset="5.809295e-04" style="stop-color:#FFD622"/>
				<stop  offset="1" style="stop-color:#F23ED7"/>
			</linearGradient>
			<path class="st1" d="M52.8,64.3c0.8-1.5,1.8-2.9,3-4.1c1.6-1.7,3.5-3,5.7-3.9c2.2-1,4.5-1.4,7-1.4c2.7,0,5.1,0.5,7.2,1.6
				s4.1,2.5,5.8,4.3c0.6,0.5,1.3,0.9,2,1.1c0.7,0.2,1.3,0.3,1.9,0.3s1.2-0.2,1.7-0.4s1-0.5,1.4-0.9c0.6-0.5,1-1.1,1.3-1.8
				s0.4-1.3,0.4-2c-0.1-1.4-0.6-2.7-1.5-3.7c-1.5-1.6-3-2.9-4.5-4.1c-1.5-1.1-3.1-2-4.7-2.7s-3.3-1.2-5.2-1.5
				c-1.8-0.3-3.7-0.5-5.7-0.5c-2.6,0-5.1,0.3-7.5,1s-4.7,1.6-6.8,2.9c-2.1,1.2-4,2.7-5.7,4.4s-3.2,3.6-4.4,5.7
				c-1,1.8-1.9,3.7-2.5,5.7C41.7,64.3,52.8,64.3,52.8,64.3z"/>
			
				<linearGradient id="SVGID_2_" gradientUnits="userSpaceOnUse" x1="75.8619" y1="19.7172" x2="57.0398" y2="52.3181" gradientTransform="matrix(1 0 0 -1 0 121.28)">
				<stop  offset="5.809295e-04" style="stop-color:#FFD622"/>
				<stop  offset="1" style="stop-color:#F23ED7"/>
			</linearGradient>
			<path class="st2" d="M90.3,85.8c-0.4-0.7-0.9-1.2-1.5-1.6c-0.4-0.4-0.9-0.6-1.4-0.7s-1-0.2-1.5-0.2s-1.1,0.1-1.6,0.2
				c-0.5,0.2-1,0.4-1.4,0.6c-1.1,0.9-2.1,1.8-3.1,2.7c-1,0.8-2.1,1.6-3.3,2.2c-1.1,0.6-2.4,1.2-3.7,1.5c-1.3,0.4-2.8,0.6-4.3,0.6
				c-2.5,0-4.8-0.5-7-1.4c-2.2-1-4.1-2.3-5.7-3.9c-1.6-1.6-2.9-3.6-3.9-5.7c-0.2-0.5-0.4-1-0.6-1.6H40.7c0.4,1.9,0.9,3.7,1.7,5.5
				c1.5,3.4,3.5,6.4,6.1,9s5.6,4.6,9,6.1s7.1,2.2,11,2.2c2.3,0,4.4-0.2,6.3-0.6s3.7-0.9,5.4-1.7c1.7-0.8,3.2-1.7,4.7-2.9
				c1.5-1.2,3-2.6,4.4-4.2c0.6-0.6,1-1.2,1.2-1.8c0.2-0.6,0.4-1.3,0.4-2C90.9,87.2,90.7,86.5,90.3,85.8z"/>
		</g>
	</g>
</g>
</svg>
